<svg version="1.1" id="Layer_1" xmlns="http://www.w3.org/2000/svg" xmlns:xlink="http://www.w3.org/1999/xlink" x="0px" y="0px"
	 viewBox="0 0 30 30" style="enable-background:new 0 0 30 30;" xml:space="preserve">
<g>
	<g style="opacity:0.4;">
		<g>
			<path style="fill:#FFFFFF;" d="M2.536,15.9c-1.516,1.877-1.734,4.508-0.522,6.596c1.211,2.09,3.59,3.222,5.975,2.85
				c2.027-0.32,3.346-1.854,4.725-3.227c1.856-1.852,3.707-3.711,5.563-5.564c2.728-2.719,5.451-5.447,8.174-8.166
				c-3.723,0.996-7.435,1.992-11.162,2.99c-2.527,0.685-5.061,1.357-7.596,2.041C5.815,13.926,3.825,14.305,2.536,15.9z"/>
		</g>
	</g>
	<g style="opacity:0.4;">
		<g>
			<path style="fill:#FFFFFF;" d="M9.548,26.246C10.417,28.494,12.587,30,15.001,30c2.412-0.004,4.582-1.506,5.451-3.754
				c0.74-1.916,0.074-3.828-0.43-5.711c-0.672-2.529-1.355-5.064-2.029-7.6c-1.002-3.715-1.996-7.438-2.992-11.16
				c-0.994,3.723-1.994,7.445-2.99,11.16c-0.676,2.535-1.352,5.07-2.031,7.6C9.476,22.418,8.808,24.33,9.548,26.246z"/>
		</g>
	</g>
	<g style="opacity:0.4;">
		<g>
			<path style="fill:#FFFFFF;" d="M22.013,25.346c2.384,0.372,4.774-0.756,5.975-2.85c1.205-2.092,0.992-4.719-0.52-6.596
				c-1.289-1.596-3.278-1.975-5.16-2.481c-2.527-0.684-5.064-1.356-7.594-2.041c-3.721-0.998-7.443-1.994-11.162-2.99
				c2.722,2.719,5.447,5.447,8.174,8.166c1.857,1.854,3.707,3.712,5.561,5.564C18.665,23.492,19.985,25.025,22.013,25.346z"/>
		</g>
	</g>
	<g style="opacity:0.4;">
		<g>
			<path style="fill:#FFFFFF;" d="M27.468,14.096c1.512-1.873,1.729-4.508,0.52-6.594c-1.211-2.094-3.59-3.227-5.975-2.85
				c-2.027,0.322-3.348,1.856-4.726,3.227c-1.854,1.855-3.703,3.711-5.561,5.56c-2.727,2.725-5.452,5.449-8.174,8.17
				c3.719-0.996,7.441-1.994,11.162-2.996c2.529-0.676,5.066-1.361,7.594-2.033C24.19,16.068,26.179,15.693,27.468,14.096z"/>
		</g>
	</g>
	<g style="opacity:0.4;">
		<g>
			<path style="fill:#FFFFFF;" d="M2.536,14.096c-1.516-1.873-1.734-4.508-0.522-6.594c1.211-2.094,3.59-3.227,5.975-2.85
				c2.027,0.322,3.346,1.856,4.727,3.227c1.854,1.855,3.705,3.711,5.561,5.56c2.728,2.725,5.451,5.449,8.174,8.17
				c-3.721-0.996-7.435-1.994-11.162-2.996c-2.527-0.676-5.061-1.361-7.596-2.033C5.815,16.068,3.825,15.693,2.536,14.096z"/>
		</g>
	</g>
	<g style="opacity:0.7;">
		<g>
			<linearGradient id="SVGID_1_" gradientUnits="userSpaceOnUse" x1="15.0003" y1="28.2246" x2="15.0003" y2="-9.974510e-07">
				<stop  offset="0" style="stop-color:#1EA06C"/>
				<stop  offset="1" style="stop-color:#7AA351"/>
			</linearGradient>
			<path style="fill:url(#SVGID_1_);" d="M20.452,3.752C19.583,1.5,17.413-0.002,15.001,0c-2.414,0.002-4.584,1.5-5.453,3.752
				C8.808,5.662,9.476,7.58,9.98,9.459c0.68,2.535,1.356,5.064,2.031,7.6c0.996,3.719,1.996,7.441,2.99,11.166
				c0.996-3.725,1.99-7.447,2.992-11.166c0.674-2.535,1.357-5.065,2.029-7.6C20.526,7.58,21.192,5.662,20.452,3.752z"/>
		</g>
	</g>
</g>
</svg>
